# xmcd
#
# Track frame offsets: 
#        150
#        16375
#        29977
#        48395
#        64915
#        83182
#        108397
#        126820
#        144075
#        157887
#        173425
#
# Disc length: 2640 seconds
#
# Revision: 3
# Processed by: cddbd v1.5.2PL0 Copyright (c) Steve Scherf et al.
# Submitted via: ExactAudioCopyFreeDBPlugin 1.0
#
DISCID=8a0a4e0b
DTITLE=Palace Music - Arise Therefore
DYEAR=1996
DGENRE=Country
TTITLE0=Stablemate
TTITLE1=A Sucker´s Evening
TTITLE2=Arise, Therefore
TTITLE3=You Have Cum (...)
TTITLE4=Kid Of Harith
TTITLE5=The Sun Highlights The Lack In Each
TTITLE6=No Gold Digger
TTITLE7=Disorder
TTITLE8=A Group Of Women
TTITLE9=Give Me Children
TTITLE10=The Weaker Soldier
EXTD=
EXTT0=
EXTT1=
EXTT2=
EXTT3=
EXTT4=
EXTT5=
EXTT6=
EXTT7=
EXTT8=
EXTT9=
EXTT10=
PLAYORDER=
